@startuml Class Diagram
left to right direction
package "Reservation"{
    class "<<Application>>\nReservation" as ReservationService{}

    class "<<Resource>>\nReservations" as ResourceReservations{
        <<GET>> +getReservations():Reservation
        <<POST>> +addReservation():Reservation
    }

    class "<<Resource>>\nReservation" as ResourceReservation {
        <<GET>> +getReservation(): Reservation
        <<PUT>> +updateReservation(): Reservation
        <<DELETE>> +deleteReservation(): void
    }

    class "<<Representation>>\nReservation" as RepresentationReservation {
        - reserveDate
        - user
        - restaurant
        - createdAt
    }

}

package "Restaurant"{
    class "<<Application>>\nRestaurant" as RestaurantService{}

    class "<<Resource>>\nRestaurants" as ResourceRestaurants{
        <<GET>> +getRestaurants():Restaurant
        <<POST>> +createRestaurant():Restaurant
    }

    class "<<Resource>>\nRestaurant" as ResourceRestaurant {
        <<GET>> +getRestaurant(): Restaurant
        <<PUT>> +updateRestaurant(): Restaurant
        <<DELETE>> +deleteRestaurant(): void
    }

    class "<<Representation>>\nRestaurant" as RepresentationRestaurant {
        - name
        - address
        - tel
        - open
        - close
    }

}

package "Authentication"{
    class "<<Application>>\nAuthentication" as Authentication{}

    class "<<Resource>>\nAuthentication" as ResourceAuthentication{
        <<POST>> +login():User
        <<POST>> +register():User
        <<GET>> +logout():User
        <<GET>> +getme():User
    }


    class "<<Representation>>\nAuthentication" as RepresentationAuthentication {
        - name
        - tel
        - email
        - role
        - password
        - resetPasswordToken
        - resetPasswordExpire
        - createAt
    }

}

ReservationService ..> ResourceReservations:"/reservations\n<<Path>>"
ResourceReservations ..> ResourceReservation: "/{reservationId}\n<<Path>>"
ResourceReservation ..> RepresentationReservation: "<<use>>"

RestaurantService ..> ResourceRestaurants:"/restaurants\n<<Path>>"
ResourceRestaurants ..> ResourceRestaurant: "/{restaurantId}\n<<Path>>"
ResourceRestaurant ..> RepresentationRestaurant: "<<use>>"

Authentication ..> ResourceAuthentication:"/auth\n<<Path>>"
ResourceAuthentication ..> RepresentationAuthentication: "<<use>>"
@enduml
